<svg width="24" height="24" viewBox="0 0 24 24" fill="none"
     xmlns="http://www.w3.org/2000/svg">
    <path
            d="M8.07307 10.634C7.38859 10.498 6.751 11.0512 6.751 11.7498V14.1126C6.751 14.5908 7.08386 14.9752 7.53393 15.144C8.38718 15.4628 9.00133 16.2879 9.00133 17.2537C9.00133 18.4961 7.99337 19.504 6.751 19.504C5.50863 19.504 4.50067 18.4961 4.50067 17.2537V5.62697C4.50067 5.00344 3.99903 4.5018 3.3755 4.5018H1.12517C0.501637 4.5018 0 5.00344 0 5.62697V17.2537C0 21.4496 3.84901 24.7642 8.20434 23.85C10.7547 23.3155 12.8128 21.2527 13.3473 18.707C14.163 14.8205 11.6127 11.3372 8.07307 10.634ZM9.79833 0.00113625C9.36701 -0.0223047 9.00133 0.319933 9.00133 0.751247V2.23272C9.00133 2.63121 9.31075 2.95939 9.70456 2.97814C15.7711 3.30631 20.6468 8.22892 20.9984 14.3001C21.0219 14.6939 21.35 15.0034 21.7438 15.0034H23.2488C23.6801 15.0034 24.0223 14.6377 23.9989 14.2064C23.6004 6.55523 17.4495 0.404321 9.79833 0.00113625ZM9.81239 4.5018C9.37639 4.46899 9.00133 4.81591 9.00133 5.2566V6.76151C9.00133 7.15532 9.30607 7.47881 9.69519 7.50694C13.2957 7.80229 16.1649 10.7043 16.4884 14.3142C16.5259 14.7033 16.8447 15.0034 17.2338 15.0034H18.7434C19.1794 15.0034 19.531 14.6283 19.4982 14.1923C19.1044 9.0306 14.9741 4.9003 9.81239 4.5018Z"
            fill="white"/>
</svg>
