<svg width="207" height="60" viewBox="0 0 207 60" fill="none"
     xmlns="http://www.w3.org/2000/svg">
    <path
            d="M76.868 40.252C75.5987 40.252 74.46 40.028 73.452 39.58C72.444 39.1133 71.6413 38.488 71.044 37.704C70.4653 36.92 70.148 36.052 70.092 35.1H74.04C74.1147 35.6973 74.404 36.192 74.908 36.584C75.4307 36.976 76.0747 37.172 76.84 37.172C77.5867 37.172 78.1653 37.0227 78.576 36.724C79.0053 36.4253 79.22 36.0427 79.22 35.576C79.22 35.072 78.9587 34.6987 78.436 34.456C77.932 34.1947 77.12 33.9147 76 33.616C74.8427 33.336 73.8907 33.0467 73.144 32.748C72.416 32.4493 71.7813 31.992 71.24 31.376C70.7173 30.76 70.456 29.9293 70.456 28.884C70.456 28.0253 70.6987 27.2413 71.184 26.532C71.688 25.8227 72.3973 25.2627 73.312 24.852C74.2453 24.4413 75.3373 24.236 76.588 24.236C78.436 24.236 79.9107 24.7027 81.012 25.636C82.1133 26.5507 82.72 27.792 82.832 29.36H79.08C79.024 28.744 78.7627 28.2587 78.296 27.904C77.848 27.5307 77.2413 27.344 76.476 27.344C75.7667 27.344 75.216 27.4747 74.824 27.736C74.4507 27.9973 74.264 28.3613 74.264 28.828C74.264 29.3507 74.5253 29.752 75.048 30.032C75.5707 30.2933 76.3827 30.564 77.484 30.844C78.604 31.124 79.528 31.4133 80.256 31.712C80.984 32.0107 81.6093 32.4773 82.132 33.112C82.6733 33.728 82.9533 34.5493 82.972 35.576C82.972 36.472 82.72 37.2747 82.216 37.984C81.7307 38.6933 81.0213 39.2533 80.088 39.664C79.1733 40.056 78.1 40.252 76.868 40.252ZM100.834 24.488V40H96.8858V38.04C96.3818 38.712 95.7191 39.244 94.8978 39.636C94.0951 40.0093 93.2178 40.196 92.2658 40.196C91.0525 40.196 89.9791 39.944 89.0458 39.44C88.1125 38.9173 87.3751 38.1613 86.8338 37.172C86.3111 36.164 86.0498 34.9693 86.0498 33.588V24.488H89.9698V33.028C89.9698 34.26 90.2778 35.212 90.8938 35.884C91.5098 36.5373 92.3498 36.864 93.4138 36.864C94.4965 36.864 95.3458 36.5373 95.9618 35.884C96.5778 35.212 96.8858 34.26 96.8858 33.028V24.488H100.834ZM108.622 26.756C109.126 26.0093 109.816 25.4027 110.694 24.936C111.59 24.4693 112.607 24.236 113.746 24.236C115.071 24.236 116.266 24.5627 117.33 25.216C118.412 25.8693 119.262 26.8027 119.878 28.016C120.512 29.2107 120.83 30.6013 120.83 32.188C120.83 33.7747 120.512 35.184 119.878 36.416C119.262 37.6293 118.412 38.572 117.33 39.244C116.266 39.916 115.071 40.252 113.746 40.252C112.588 40.252 111.571 40.028 110.694 39.58C109.835 39.1133 109.144 38.516 108.622 37.788V40H104.702V19.28H108.622V26.756ZM116.826 32.188C116.826 31.2547 116.63 30.452 116.238 29.78C115.864 29.0893 115.36 28.5667 114.726 28.212C114.11 27.8573 113.438 27.68 112.71 27.68C112 27.68 111.328 27.8667 110.694 28.24C110.078 28.5947 109.574 29.1173 109.182 29.808C108.808 30.4987 108.622 31.3107 108.622 32.244C108.622 33.1773 108.808 33.9893 109.182 34.68C109.574 35.3707 110.078 35.9027 110.694 36.276C111.328 36.6307 112 36.808 112.71 36.808C113.438 36.808 114.11 36.6213 114.726 36.248C115.36 35.8747 115.864 35.3427 116.238 34.652C116.63 33.9613 116.826 33.14 116.826 32.188ZM129.614 40.252C128.345 40.252 127.206 40.028 126.198 39.58C125.19 39.1133 124.387 38.488 123.79 37.704C123.211 36.92 122.894 36.052 122.838 35.1H126.786C126.861 35.6973 127.15 36.192 127.654 36.584C128.177 36.976 128.821 37.172 129.586 37.172C130.333 37.172 130.911 37.0227 131.322 36.724C131.751 36.4253 131.966 36.0427 131.966 35.576C131.966 35.072 131.705 34.6987 131.182 34.456C130.678 34.1947 129.866 33.9147 128.746 33.616C127.589 33.336 126.637 33.0467 125.89 32.748C125.162 32.4493 124.527 31.992 123.986 31.376C123.463 30.76 123.202 29.9293 123.202 28.884C123.202 28.0253 123.445 27.2413 123.93 26.532C124.434 25.8227 125.143 25.2627 126.058 24.852C126.991 24.4413 128.083 24.236 129.334 24.236C131.182 24.236 132.657 24.7027 133.758 25.636C134.859 26.5507 135.466 27.792 135.578 29.36H131.826C131.77 28.744 131.509 28.2587 131.042 27.904C130.594 27.5307 129.987 27.344 129.222 27.344C128.513 27.344 127.962 27.4747 127.57 27.736C127.197 27.9973 127.01 28.3613 127.01 28.828C127.01 29.3507 127.271 29.752 127.794 30.032C128.317 30.2933 129.129 30.564 130.23 30.844C131.35 31.124 132.274 31.4133 133.002 31.712C133.73 32.0107 134.355 32.4773 134.878 33.112C135.419 33.728 135.699 34.5493 135.718 35.576C135.718 36.472 135.466 37.2747 134.962 37.984C134.477 38.6933 133.767 39.2533 132.834 39.664C131.919 40.056 130.846 40.252 129.614 40.252ZM145.824 40.252C144.331 40.252 142.987 39.9253 141.792 39.272C140.597 38.6 139.655 37.6573 138.964 36.444C138.292 35.2307 137.956 33.8307 137.956 32.244C137.956 30.6573 138.301 29.2573 138.992 28.044C139.701 26.8307 140.663 25.8973 141.876 25.244C143.089 24.572 144.443 24.236 145.936 24.236C147.429 24.236 148.783 24.572 149.996 25.244C151.209 25.8973 152.161 26.8307 152.852 28.044C153.561 29.2573 153.916 30.6573 153.916 32.244C153.916 33.8307 153.552 35.2307 152.824 36.444C152.115 37.6573 151.144 38.6 149.912 39.272C148.699 39.9253 147.336 40.252 145.824 40.252ZM145.824 36.836C146.533 36.836 147.196 36.668 147.812 36.332C148.447 35.9773 148.951 35.4547 149.324 34.764C149.697 34.0733 149.884 33.2333 149.884 32.244C149.884 30.7693 149.492 29.64 148.708 28.856C147.943 28.0533 147 27.652 145.88 27.652C144.76 27.652 143.817 28.0533 143.052 28.856C142.305 29.64 141.932 30.7693 141.932 32.244C141.932 33.7187 142.296 34.8573 143.024 35.66C143.771 36.444 144.704 36.836 145.824 36.836ZM155.783 32.244C155.783 30.6387 156.11 29.2387 156.763 28.044C157.417 26.8307 158.322 25.8973 159.479 25.244C160.637 24.572 161.962 24.236 163.455 24.236C165.378 24.236 166.965 24.7213 168.215 25.692C169.485 26.644 170.334 27.988 170.763 29.724H166.535C166.311 29.052 165.929 28.5293 165.387 28.156C164.865 27.764 164.211 27.568 163.427 27.568C162.307 27.568 161.421 27.9787 160.767 28.8C160.114 29.6027 159.787 30.7507 159.787 32.244C159.787 33.7187 160.114 34.8667 160.767 35.688C161.421 36.4907 162.307 36.892 163.427 36.892C165.014 36.892 166.05 36.1827 166.535 34.764H170.763C170.334 36.444 169.485 37.7787 168.215 38.768C166.946 39.7573 165.359 40.252 163.455 40.252C161.962 40.252 160.637 39.9253 159.479 39.272C158.322 38.6 157.417 37.6667 156.763 36.472C156.11 35.2587 155.783 33.8493 155.783 32.244ZM175.623 22.64C174.932 22.64 174.354 22.4253 173.887 21.996C173.439 21.548 173.215 20.9973 173.215 20.344C173.215 19.6907 173.439 19.1493 173.887 18.72C174.354 18.272 174.932 18.048 175.623 18.048C176.314 18.048 176.883 18.272 177.331 18.72C177.798 19.1493 178.031 19.6907 178.031 20.344C178.031 20.9973 177.798 21.548 177.331 21.996C176.883 22.4253 176.314 22.64 175.623 22.64ZM177.555 24.488V40H173.635V24.488H177.555ZM180.42 32.188C180.42 30.62 180.728 29.2293 181.344 28.016C181.979 26.8027 182.828 25.8693 183.892 25.216C184.975 24.5627 186.179 24.236 187.504 24.236C188.661 24.236 189.669 24.4693 190.528 24.936C191.405 25.4027 192.105 25.9907 192.628 26.7V24.488H196.576V40H192.628V37.732C192.124 38.46 191.424 39.0667 190.528 39.552C189.651 40.0187 188.633 40.252 187.476 40.252C186.169 40.252 184.975 39.916 183.892 39.244C182.828 38.572 181.979 37.6293 181.344 36.416C180.728 35.184 180.42 33.7747 180.42 32.188ZM192.628 32.244C192.628 31.292 192.441 30.48 192.068 29.808C191.695 29.1173 191.191 28.5947 190.556 28.24C189.921 27.8667 189.24 27.68 188.512 27.68C187.784 27.68 187.112 27.8573 186.496 28.212C185.88 28.5667 185.376 29.0893 184.984 29.78C184.611 30.452 184.424 31.2547 184.424 32.188C184.424 33.1213 184.611 33.9427 184.984 34.652C185.376 35.3427 185.88 35.8747 186.496 36.248C187.131 36.6213 187.803 36.808 188.512 36.808C189.24 36.808 189.921 36.6307 190.556 36.276C191.191 35.9027 191.695 35.38 192.068 34.708C192.441 34.0173 192.628 33.196 192.628 32.244ZM204.325 19.28V40H200.405V19.28H204.325Z"
            fill="white"/>
    <rect x="2" y="2" width="56" height="56" rx="16" fill="#6553B3"/>
    <path
            d="M29.8999 53C36.0303 53 40.9999 48.0303 40.9999 41.9L40.9999 34.7C40.9999 28.5696 36.0303 23.6 29.8999 23.6C29.0395 23.6 28.2019 23.6979 27.3977 23.8832V23.8832C26.9148 23.9944 26.7792 24.5904 27.1376 24.9327L27.1977 24.9901L33.5922 31.0977C34.5838 32.0608 35.1999 33.4085 35.1999 34.9V41.7C35.1999 44.6271 32.827 47 29.8999 47C26.9728 47 24.5999 44.6271 24.5999 41.7V41.5C24.5999 39.8983 23.3016 38.6 21.6999 38.6V38.6C20.0983 38.6 18.7999 39.8983 18.7999 41.5V41.9C18.7999 48.0303 23.7696 53 29.8999 53Z"
            fill="white"/>
    <path
            d="M29.8977 6.39774C23.7674 6.39774 18.7977 11.3674 18.7977 17.4977L18.7977 24.6977C18.7977 30.8281 23.7674 35.7977 29.8977 35.7977C30.7582 35.7977 31.5958 35.6998 32.4 35.5145V35.5145C32.8829 35.4033 33.0184 34.8073 32.6601 34.465L32.6 34.4076L26.2054 28.3C25.2138 27.3369 24.5977 25.9892 24.5977 24.4977V17.6977C24.5977 14.7706 26.9706 12.3977 29.8977 12.3977C32.8248 12.3977 35.1977 14.7706 35.1977 17.6977V17.9C35.1977 19.5016 36.4961 20.8 38.0977 20.8V20.8C39.6994 20.8 40.9977 19.5016 40.9977 17.9V17.4977C40.9977 11.3674 36.0281 6.39774 29.8977 6.39774Z"
            fill="white"/>
</svg>
